<svg width="509" height="442" fill="none" xmlns="http://www.w3.org/2000/svg"><path d="M19.773 382.682c8.636 0 14.454-4.205 15.818-10.682l-8.955-.591c-.977 2.659-3.477 4.046-6.704 4.046-4.841 0-7.91-3.205-7.91-8.41v-.022h23.773v-2.659c0-11.864-7.181-17.728-16.409-17.728-10.272 0-16.931 7.296-16.931 18.069 0 11.068 6.568 17.977 17.318 17.977zm-7.75-21.659c.204-3.978 3.227-7.159 7.523-7.159 4.204 0 7.113 3 7.136 7.159h-14.66zM42.113 382h9.682v-20.955c0-3.863 2.455-6.431 5.682-6.431 3.182 0 5.319 2.181 5.319 5.613V382h9.386v-21.318c0-3.614 2.068-6.068 5.59-6.068 3.092 0 5.41 1.931 5.41 5.818V382h9.659v-23.477c0-7.568-4.5-11.887-11-11.887-5.114 0-9.091 2.614-10.523 6.614h-.364c-1.113-4.045-4.681-6.614-9.477-6.614-4.704 0-8.272 2.5-9.727 6.614h-.41v-6.159h-9.226V382zm68.33.659c5.159 0 8.5-2.25 10.205-5.5h.272V382h9.182v-23.545c0-8.319-7.045-11.819-14.818-11.819-8.364 0-13.864 4-15.204 10.364l8.954.727c.659-2.318 2.727-4.022 6.205-4.022 3.295 0 5.181 1.659 5.181 4.522v.137c0 2.25-2.386 2.545-8.454 3.136-6.909.636-13.114 2.955-13.114 10.75 0 6.909 4.932 10.409 11.591 10.409zm2.773-6.682c-2.977 0-5.114-1.386-5.114-4.045 0-2.727 2.25-4.068 5.659-4.546 2.114-.295 5.569-.795 6.728-1.568v3.705c0 3.659-3.023 6.454-7.273 6.454zM137.614 382h9.681v-34.909h-9.681V382zm4.863-39.409c2.887 0 5.25-2.205 5.25-4.909 0-2.682-2.363-4.887-5.25-4.887-2.863 0-5.227 2.205-5.227 4.887 0 2.704 2.364 4.909 5.227 4.909zm22.256-7.136h-9.682V382h9.682v-46.545zm29.506 23.59h-21.228v7.682h21.228v-7.682zm17.931 2.773c.023-4.5 2.705-7.136 6.614-7.136 3.886 0 6.227 2.545 6.205 6.818V382h9.681v-22.227c0-8.137-4.772-13.137-12.045-13.137-5.182 0-8.932 2.546-10.5 6.614h-.409v-6.159h-9.227V382h9.681v-20.182zm45.904 20.864c10.591 0 17.182-7.25 17.182-18 0-10.818-6.591-18.046-17.182-18.046-10.591 0-17.182 7.228-17.182 18.046 0 10.75 6.591 18 17.182 18zm.045-7.5c-4.886 0-7.386-4.477-7.386-10.568 0-6.091 2.5-10.591 7.386-10.591 4.796 0 7.296 4.5 7.296 10.591 0 6.091-2.5 10.568-7.296 10.568zM281.551 382h9.682v-19.75c0-4.295 3.136-7.25 7.409-7.25 1.341 0 3.182.227 4.091.523v-8.591c-.864-.205-2.068-.341-3.045-.341-3.91 0-7.114 2.273-8.387 6.591h-.363v-6.091h-9.387V382zm26.188 0h9.681v-20.955c0-3.863 2.455-6.431 5.682-6.431 3.182 0 5.318 2.181 5.318 5.613V382h9.387v-21.318c0-3.614 2.068-6.068 5.591-6.068 3.091 0 5.409 1.931 5.409 5.818V382h9.659v-23.477c0-7.568-4.5-11.887-11-11.887-5.114 0-9.091 2.614-10.523 6.614h-.363c-1.114-4.045-4.682-6.614-9.478-6.614-4.704 0-8.272 2.5-9.727 6.614h-.409v-6.159h-9.227V382zm68.329.659c5.159 0 8.5-2.25 10.205-5.5h.272V382h9.182v-23.545c0-8.319-7.045-11.819-14.818-11.819-8.364 0-13.864 4-15.204 10.364l8.954.727c.659-2.318 2.727-4.022 6.205-4.022 3.295 0 5.181 1.659 5.181 4.522v.137c0 2.25-2.386 2.545-8.454 3.136-6.909.636-13.114 2.955-13.114 10.75 0 6.909 4.932 10.409 11.591 10.409zm2.773-6.682c-2.977 0-5.114-1.386-5.114-4.045 0-2.727 2.25-4.068 5.659-4.546 2.114-.295 5.569-.795 6.728-1.568v3.705c0 3.659-3.023 6.454-7.273 6.454zm34.079-40.522h-9.681V382h9.681v-46.545zM420.676 382h9.682v-34.909h-9.682V382zm4.864-39.409c2.886 0 5.25-2.205 5.25-4.909 0-2.682-2.364-4.887-5.25-4.887-2.864 0-5.228 2.205-5.228 4.887 0 2.704 2.364 4.909 5.228 4.909zM437.932 382h29.341v-7.727h-16.637v-.25l16.046-20.637v-6.295h-28.159v7.727h16.5v.25l-17.091 21.159V382zm51.653.682c8.637 0 14.455-4.205 15.818-10.682l-8.954-.591c-.977 2.659-3.477 4.046-6.705 4.046-4.841 0-7.909-3.205-7.909-8.41v-.022h23.773v-2.659c0-11.864-7.182-17.728-16.409-17.728-10.273 0-16.932 7.296-16.932 18.069 0 11.068 6.568 17.977 17.318 17.977zm-7.75-21.659c.205-3.978 3.227-7.159 7.523-7.159 4.204 0 7.114 3 7.136 7.159h-14.659z" fill="#000"/><path d="M66.954 418.545h-2.079v13.739h-.17l-9.546-13.739h-2.045V436h2.113v-13.705h.17L64.91 436h2.045v-17.455zm9.275 17.728c3.546 0 5.932-2.693 5.932-6.75 0-4.091-2.386-6.784-5.932-6.784-3.545 0-5.931 2.693-5.931 6.784 0 4.057 2.386 6.75 5.931 6.75zm0-1.807c-2.693 0-3.92-2.318-3.92-4.943 0-2.625 1.227-4.978 3.92-4.978 2.694 0 3.92 2.353 3.92 4.978 0 2.625-1.226 4.943-3.92 4.943zM85.231 436h2.012v-8.284c0-1.773 1.398-3.068 3.307-3.068.537 0 1.09.102 1.227.136v-2.045c-.23-.017-.758-.034-1.057-.034-1.568 0-2.932.886-3.409 2.181h-.136v-1.977H85.23V436zm8.93 0h2.012v-8.182c0-1.917 1.397-3.273 2.965-3.273 1.526 0 2.591.998 2.591 2.489V436h2.046v-8.523c0-1.687 1.057-2.932 2.898-2.932 1.431 0 2.659.759 2.659 2.694V436h2.011v-8.761c0-3.077-1.653-4.5-3.989-4.5-1.875 0-3.247.86-3.92 2.216h-.136c-.648-1.398-1.79-2.216-3.512-2.216-1.704 0-2.966.818-3.511 2.216h-.17v-2.046H94.16V436zm24.712.307c2.284 0 3.477-1.227 3.886-2.08h.103V436h2.011v-8.625c0-4.159-3.171-4.636-4.841-4.636-1.977 0-4.227.681-5.25 3.068l1.909.682c.443-.955 1.492-1.978 3.409-1.978 1.85 0 2.762.98 2.762 2.659v.069c0 .971-.989.886-3.375 1.193-2.429.315-5.08.852-5.08 3.852 0 2.557 1.977 4.023 4.466 4.023zm.307-1.807c-1.603 0-2.762-.716-2.762-2.114 0-1.534 1.398-2.011 2.966-2.216.853-.102 3.137-.34 3.478-.75v1.841c0 1.637-1.296 3.239-3.682 3.239zm11.375-15.955h-2.011V436h2.011v-17.455zM134.239 436h2.012v-13.091h-2.012V436zm1.023-15.273c.784 0 1.432-.613 1.432-1.363s-.648-1.364-1.432-1.364c-.784 0-1.432.614-1.432 1.364 0 .75.648 1.363 1.432 1.363zM139.56 436h10.261v-1.875h-7.466v-.136l7.227-9.478v-1.602h-9.784v1.875h7.193v.136l-7.431 9.546V436zm18.473.273c2.659 0 4.602-1.33 5.216-3.307l-1.944-.546c-.511 1.364-1.696 2.046-3.272 2.046-2.361 0-3.989-1.526-4.083-4.33h9.503v-.852c0-4.875-2.898-6.545-5.625-6.545-3.545 0-5.898 2.795-5.898 6.818s2.319 6.716 6.103 6.716zm-4.083-7.875c.137-2.037 1.577-3.853 3.878-3.853 2.182 0 3.58 1.637 3.58 3.853h-7.458zm24.256 7.875c2.523 0 3.375-1.568 3.818-2.284h.239V436h1.943v-17.455h-2.011v6.444h-.171c-.443-.682-1.227-2.25-3.784-2.25-3.307 0-5.591 2.625-5.591 6.75 0 4.159 2.284 6.784 5.557 6.784zm.273-1.807c-2.523 0-3.818-2.216-3.818-5.011 0-2.762 1.261-4.91 3.818-4.91 2.454 0 3.75 1.978 3.75 4.91 0 2.965-1.33 5.011-3.75 5.011zm15.179 1.807c2.659 0 4.602-1.33 5.216-3.307l-1.944-.546c-.511 1.364-1.696 2.046-3.272 2.046-2.361 0-3.989-1.526-4.083-4.33h9.503v-.852c0-4.875-2.898-6.545-5.625-6.545-3.545 0-5.898 2.795-5.898 6.818s2.319 6.716 6.103 6.716zm-4.083-7.875c.137-2.037 1.577-3.853 3.878-3.853 2.182 0 3.58 1.637 3.58 3.853h-7.458zm18.392-5.489h-2.931v-1.329c0-1.296.545-1.978 1.875-1.978.579 0 .92.137 1.125.205l.579-1.739c-.307-.136-.92-.341-1.909-.341-1.875 0-3.682 1.125-3.682 3.375v1.807h-2.113v1.705h2.113V436h2.012v-11.386h2.931v-1.705zm6.296 13.398c2.285 0 3.478-1.227 3.887-2.08h.102V436h2.011v-8.625c0-4.159-3.17-4.636-4.84-4.636-1.978 0-4.228.681-5.25 3.068l1.909.682c.443-.955 1.491-1.978 3.409-1.978 1.849 0 2.761.98 2.761 2.659v.069c0 .971-.989.886-3.375 1.193-2.429.315-5.079.852-5.079 3.852 0 2.557 1.977 4.023 4.465 4.023zm.307-1.807c-1.602 0-2.761-.716-2.761-2.114 0-1.534 1.398-2.011 2.966-2.216.852-.102 3.136-.34 3.477-.75v1.841c0 1.637-1.295 3.239-3.682 3.239zm17.615-3.852c0 2.454-1.875 3.579-3.375 3.579-1.671 0-2.864-1.227-2.864-3.136v-8.182h-2.011v8.318c0 3.341 1.772 4.943 4.227 4.943 1.977 0 3.273-1.056 3.886-2.386h.137V436h2.011v-13.091h-2.011v7.739zm7.706-12.103h-2.011V436h2.011v-17.455zm9.377 4.364h-2.795v-3.136h-2.011v3.136h-1.978v1.705h1.978v8.181c0 2.285 1.841 3.375 3.545 3.375.75 0 1.227-.136 1.5-.238l-.409-1.807c-.17.034-.443.102-.886.102-.887 0-1.739-.272-1.739-1.977v-7.636h2.795v-1.705zm15.265 13.364c2.659 0 4.602-1.33 5.216-3.307l-1.944-.546c-.511 1.364-1.696 2.046-3.272 2.046-2.361 0-3.989-1.526-4.083-4.33h9.503v-.852c0-4.875-2.898-6.545-5.625-6.545-3.545 0-5.898 2.795-5.898 6.818s2.319 6.716 6.103 6.716zm-4.083-7.875c.137-2.037 1.577-3.853 3.878-3.853 2.182 0 3.58 1.637 3.58 3.853h-7.458zM273.013 436h2.011v-8.182c0-1.917 1.398-3.273 2.966-3.273 1.526 0 2.591.998 2.591 2.489V436h2.045v-8.523c0-1.687 1.057-2.932 2.898-2.932 1.432 0 2.659.759 2.659 2.694V436h2.012v-8.761c0-3.077-1.654-4.5-3.989-4.5-1.875 0-3.247.86-3.92 2.216h-.137c-.648-1.398-1.79-2.216-3.511-2.216-1.705 0-2.966.818-3.512 2.216h-.17v-2.046h-1.943V436zm24.711.307c2.285 0 3.478-1.227 3.887-2.08h.102V436h2.011v-8.625c0-4.159-3.17-4.636-4.84-4.636-1.978 0-4.228.681-5.25 3.068l1.909.682c.443-.955 1.491-1.978 3.409-1.978 1.849 0 2.761.98 2.761 2.659v.069c0 .971-.989.886-3.375 1.193-2.429.315-5.079.852-5.079 3.852 0 2.557 1.977 4.023 4.465 4.023zm.307-1.807c-1.602 0-2.761-.716-2.761-2.114 0-1.534 1.398-2.011 2.966-2.216.852-.102 3.136-.34 3.477-.75v1.841c0 1.637-1.295 3.239-3.682 3.239zm9.365 1.5h2.011v-13.091h-2.011V436zm1.022-15.273c.784 0 1.432-.613 1.432-1.363s-.648-1.364-1.432-1.364c-.784 0-1.431.614-1.431 1.364 0 .75.647 1.363 1.431 1.363zm6.684-2.182h-2.011V436h2.011v-17.455zm15.752 17.728c2.898 0 4.807-1.773 5.148-4.091h-2.011c-.375 1.432-1.568 2.284-3.137 2.284-2.386 0-3.92-1.977-3.92-5.011 0-2.966 1.568-4.91 3.92-4.91 1.773 0 2.83 1.091 3.137 2.285h2.011c-.341-2.455-2.42-4.091-5.182-4.091-3.545 0-5.897 2.795-5.897 6.784 0 3.92 2.25 6.75 5.931 6.75zm10.1-17.728h-2.012V436h2.012v-17.455zM344.638 436h2.011v-13.091h-2.011V436zm1.023-15.273c.784 0 1.431-.613 1.431-1.363s-.647-1.364-1.431-1.364c-.785 0-1.432.614-1.432 1.364 0 .75.647 1.363 1.432 1.363zm10.161 15.546c2.659 0 4.602-1.33 5.216-3.307l-1.944-.546c-.511 1.364-1.696 2.046-3.272 2.046-2.361 0-3.989-1.526-4.083-4.33h9.503v-.852c0-4.875-2.898-6.545-5.625-6.545-3.545 0-5.898 2.795-5.898 6.818s2.319 6.716 6.103 6.716zm-4.083-7.875c.137-2.037 1.577-3.853 3.878-3.853 2.182 0 3.58 1.637 3.58 3.853h-7.458zm14.574-.273c0-2.284 1.415-3.58 3.341-3.58 1.867 0 3 1.219 3 3.273V436h2.011v-8.318c0-3.341-1.781-4.943-4.431-4.943-1.978 0-3.205.886-3.819 2.216h-.17v-2.046h-1.943V436h2.011v-7.875zm17.721-5.216h-2.795v-3.136h-2.012v3.136h-1.977v1.705h1.977v8.181c0 2.285 1.841 3.375 3.546 3.375.75 0 1.227-.136 1.5-.238l-.409-1.807c-.171.034-.444.102-.887.102-.886 0-1.738-.272-1.738-1.977v-7.636h2.795v-1.705zm19.048 2.932c-.63-1.858-2.045-3.102-4.636-3.102-2.761 0-4.807 1.568-4.807 3.784 0 1.807 1.074 3.017 3.477 3.579l2.182.512c1.321.306 1.943.937 1.943 1.841 0 1.125-1.193 2.045-3.068 2.045-1.645 0-2.676-.707-3.034-2.114l-1.909.478c.469 2.224 2.301 3.409 4.977 3.409 3.043 0 5.114-1.662 5.114-3.921 0-1.824-1.142-2.974-3.477-3.545l-1.943-.477c-1.552-.384-2.25-.904-2.25-1.91 0-1.125 1.193-1.943 2.795-1.943 1.756 0 2.48.972 2.83 1.875l1.806-.511zm8.96-2.932h-2.796v-3.136h-2.011v3.136h-1.977v1.705h1.977v8.181c0 2.285 1.841 3.375 3.546 3.375.75 0 1.227-.136 1.5-.238l-.41-1.807c-.17.034-.443.102-.886.102-.886 0-1.739-.272-1.739-1.977v-7.636h2.796v-1.705zm4.321 18c1.815 0 3.094-.963 3.852-3l5.574-14.966-2.199-.034-3.613 10.432h-.137l-3.613-10.432h-2.182l4.841 13.159-.375 1.023c-.733 1.994-1.637 2.182-3.103 1.807l-.511 1.772c.205.103.784.239 1.466.239zm14.099-22.364h-2.012V436h2.012v-17.455zm9.172 17.728c2.659 0 4.603-1.33 5.216-3.307l-1.943-.546c-.511 1.364-1.696 2.046-3.273 2.046-2.361 0-3.988-1.526-4.082-4.33h9.503v-.852c0-4.875-2.898-6.545-5.625-6.545-3.546 0-5.898 2.795-5.898 6.818s2.318 6.716 6.102 6.716zm-4.082-7.875c.136-2.037 1.577-3.853 3.878-3.853 2.182 0 3.579 1.637 3.579 3.853h-7.457zm21.835-2.557c-.631-1.858-2.045-3.102-4.636-3.102-2.762 0-4.807 1.568-4.807 3.784 0 1.807 1.074 3.017 3.477 3.579l2.182.512c1.321.306 1.943.937 1.943 1.841 0 1.125-1.193 2.045-3.068 2.045-1.645 0-2.676-.707-3.034-2.114l-1.909.478c.469 2.224 2.301 3.409 4.977 3.409 3.043 0 5.114-1.662 5.114-3.921 0-1.824-1.142-2.974-3.478-3.545l-1.943-.477c-1.551-.384-2.25-.904-2.25-1.91 0-1.125 1.193-1.943 2.796-1.943 1.755 0 2.48.972 2.829 1.875l1.807-.511z" fill="#979797"/><rect x="254" width="212.132" height="212.132" rx="16" transform="rotate(45 254 0)" fill="#06D9E7"/><path d="M213.955 195.869c0-22.42 18.239-40.659 40.659-40.659h33.158l-13.927 13.928a5.3 5.3 0 000 7.5 5.304 5.304 0 007.5 0l22.981-22.981a5.302 5.302 0 001.149-5.78 5.298 5.298 0 00-1.149-1.72l-22.981-22.981a5.304 5.304 0 10-7.5 7.5l13.927 13.927h-33.158c-22.42 0-40.659-18.239-40.659-40.658a5.304 5.304 0 10-10.606 0 50.927 50.927 0 0015.015 36.25 51.377 51.377 0 0013.49 9.712 51.386 51.386 0 00-28.506 45.962 5.304 5.304 0 0010.607 0z" fill="#fff"/></svg>
